<svg id="Layer_1" data-name="Layer 1" xmlns="http://www.w3.org/2000/svg" viewBox="0 0 1153.42 172.39"><defs><style>.cls-1{fill:none;stroke:#fff;stroke-miterlimit:10;}</style></defs><title>stfu</title><path class="cls-1" d="M87,71.5a7.41,7.41,0,0,0,1.53,4.22q2.08,2.23,7.69,2.23a11.77,11.77,0,0,0,5.24-1A3.13,3.13,0,0,0,103.37,74a3.16,3.16,0,0,0-1.56-2.85q-1.57-1-11.65-3.36Q82.9,66,79.93,63.33t-3-7.66A13.27,13.27,0,0,1,81.6,45.54q4.64-4.24,13.06-4.24,8,0,13,3.18t5.77,11H102.32a6.58,6.58,0,0,0-1.21-3.4q-1.84-2.26-6.27-2.27-3.64,0-5.19,1.13a3.26,3.26,0,0,0-1.55,2.66,2.9,2.9,0,0,0,1.65,2.77q1.64.9,11.62,3.09,6.65,1.56,10,4.73a10.73,10.73,0,0,1,3.28,8,12.93,12.93,0,0,1-4.72,10.33q-4.72,4-14.58,4-10.06,0-14.85-4.24a13.77,13.77,0,0,1-4.79-10.8Z" transform="translate(-75.18 -26.43)"/><path class="cls-1" d="M153.42,42.75a12.5,12.5,0,0,1,5.27,4.18,11.16,11.16,0,0,1,2.14,4.91,60.61,60.61,0,0,1,.39,8.23v25H149.85V59.16a11.49,11.49,0,0,0-1.16-5.55q-1.51-3-5.74-3a7.87,7.87,0,0,0-6.65,3Q134,56.54,134,62V85.09H122.9V27.71H134V48a13.61,13.61,0,0,1,5.58-5.18,15.72,15.72,0,0,1,6.67-1.46A18,18,0,0,1,153.42,42.75Z" transform="translate(-75.18 -26.43)"/><path class="cls-1" d="M182.78,42.51V68.18a13.5,13.5,0,0,0,.85,5.47q1.52,3.24,5.95,3.24,5.67,0,7.77-4.61a16.77,16.77,0,0,0,1.09-6.6V42.51h11.29V85.09H198.92v-6q-.16.2-.78,1.17A7.81,7.81,0,0,1,196.66,82a15.45,15.45,0,0,1-5,3.2,17.16,17.16,0,0,1-5.71.86q-9.43,0-12.7-6.8-1.83-3.75-1.83-11.05V42.51Z" transform="translate(-75.18 -26.43)"/><path class="cls-1" d="M216.18,50.83V42.9h5.94V31h11V42.9h6.91v7.93h-6.91v22.5q0,2.62.66,3.26t4.06.64l1.07,0,1.11-.06v8.32l-5.27.2q-7.89.27-10.78-2.73Q222.12,81,222.12,77V50.83Z" transform="translate(-75.18 -26.43)"/><path class="cls-1" d="M265.05,50.83V42.9H271V31h11V42.9h6.91v7.93H282v22.5q0,2.62.66,3.26t4.06.64l1.07,0,1.11-.06v8.32l-5.27.2q-7.89.27-10.78-2.73Q271,81,271,77V50.83Z" transform="translate(-75.18 -26.43)"/><path class="cls-1" d="M326.67,42.75a12.5,12.5,0,0,1,5.27,4.18,11.16,11.16,0,0,1,2.14,4.91,60.61,60.61,0,0,1,.39,8.23v25H323.1V59.16a11.49,11.49,0,0,0-1.16-5.55q-1.51-3-5.74-3a7.87,7.87,0,0,0-6.65,3q-2.27,3-2.27,8.43V85.09H296.14V27.71h11.13V48a13.61,13.61,0,0,1,5.58-5.18,15.72,15.72,0,0,1,6.67-1.46A18,18,0,0,1,326.67,42.75Z" transform="translate(-75.18 -26.43)"/><path class="cls-1" d="M372.68,43.38a17.32,17.32,0,0,1,7.36,6.3,20.93,20.93,0,0,1,3.39,8.8,54.49,54.49,0,0,1,.37,8.45h-31q.26,6.41,4.45,9a11.3,11.3,0,0,0,6.14,1.6,8.65,8.65,0,0,0,8.47-4.88h11.37q-.45,3.79-4.13,7.7-5.72,6.21-16,6.21a23.21,23.21,0,0,1-15-5.24q-6.5-5.24-6.5-17,0-11.06,5.87-17t15.23-5.9A24.24,24.24,0,0,1,372.68,43.38ZM356,53a11.57,11.57,0,0,0-3,6.59h19.18a9.29,9.29,0,0,0-3-6.73,9.76,9.76,0,0,0-6.6-2.3A8.83,8.83,0,0,0,356,53Z" transform="translate(-75.18 -26.43)"/><path class="cls-1" d="M429.27,27l2.34.18v9.06q-.94-.12-3.14-.18a3.62,3.62,0,0,0-3,1,3.54,3.54,0,0,0-.84,2.29V42.9h7.3v7.85h-7.3V85.09H413.53V50.75h-6.25V42.9h6.09V40.17q0-6.83,2.3-9.41,2.42-3.83,11.68-3.83Q428.41,26.93,429.27,27Z" transform="translate(-75.18 -26.43)"/><path class="cls-1" d="M449.39,42.51V68.18a13.5,13.5,0,0,0,.85,5.47q1.52,3.24,5.95,3.24,5.67,0,7.77-4.61a16.77,16.77,0,0,0,1.09-6.6V42.51h11.29V85.09H465.52v-6q-.16.2-.78,1.17A7.81,7.81,0,0,1,463.26,82a15.45,15.45,0,0,1-5,3.2,17.16,17.16,0,0,1-5.71.86q-9.43,0-12.7-6.8Q438,75.48,438,68.18V42.51Z" transform="translate(-75.18 -26.43)"/><path class="cls-1" d="M512.63,57.79a9.87,9.87,0,0,0-1.61-4.3q-1.88-2.58-5.83-2.58-5.64,0-7.71,5.59a23.19,23.19,0,0,0-1.1,7.87,21.32,21.32,0,0,0,1.1,7.52q2,5.31,7.52,5.31,3.92,0,5.56-2.11a10.48,10.48,0,0,0,2-5.47h11.37a18.62,18.62,0,0,1-3.68,9.61q-5.24,7.31-15.52,7.3t-15.13-6.09q-4.85-6.09-4.85-15.8,0-11,5.36-17t14.78-6.09q8,0,13.12,3.59t6,12.7Z" transform="translate(-75.18 -26.43)"/><path class="cls-1" d="M531.54,27.71h10.94V58.77l14-16.06h13.84L555.1,58.57l15.85,26.52H557.4L547.08,66.9l-4.61,4.79v13.4H531.54Z" transform="translate(-75.18 -26.43)"/><path class="cls-1" d="M609.46,42.51V68.18a13.49,13.49,0,0,0,.86,5.47q1.52,3.24,5.95,3.24,5.67,0,7.77-4.61a16.78,16.78,0,0,0,1.09-6.6V42.51h11.29V85.09H625.6v-6q-.16.2-.78,1.17A7.8,7.8,0,0,1,623.34,82a15.45,15.45,0,0,1-5,3.2,17.16,17.16,0,0,1-5.71.86q-9.43,0-12.7-6.8-1.83-3.75-1.83-11.05V42.51Z" transform="translate(-75.18 -26.43)"/><path class="cls-1" d="M683,47.08q5.21,5.51,5.21,16.17,0,11.25-5.09,17.15a16.52,16.52,0,0,1-13.11,5.9,13.75,13.75,0,0,1-8.49-2.54,16.4,16.4,0,0,1-3.62-4.1v22.19h-11V42.51h10.66V48.8a17.91,17.91,0,0,1,3.85-4.37,14.22,14.22,0,0,1,8.88-2.85A16.84,16.84,0,0,1,683,47.08Zm-8.54,8q-2.27-3.79-7.36-3.79A8.37,8.37,0,0,0,658.73,57a21.58,21.58,0,0,0-1.18,7.73q0,7.42,4,10.43A9.14,9.14,0,0,0,667.14,77a8.15,8.15,0,0,0,7.16-3.59q2.47-3.59,2.47-9.57A16.63,16.63,0,0,0,674.5,55.09Z" transform="translate(-75.18 -26.43)"/><path class="cls-1" d="M89.78,133.43H78.49V123.16H89.78Zm-11.29,5.08H89.78v42.58H78.49Z" transform="translate(-75.18 -26.43)"/><path class="cls-1" d="M145.36,139.2a13.53,13.53,0,0,1,4.88,4.71V123.59h11.29v57.5H150.71v-5.9a15.7,15.7,0,0,1-5.43,5.51,15.25,15.25,0,0,1-7.58,1.72,15.82,15.82,0,0,1-12.56-6q-5.1-6-5.1-15.49,0-10.9,5-17.15a16.33,16.33,0,0,1,13.42-6.25A13.73,13.73,0,0,1,145.36,139.2Zm2.73,30.33a15.53,15.53,0,0,0,2.46-9.1q0-7.81-3.95-11.17a8.5,8.5,0,0,0-5.62-2,7.82,7.82,0,0,0-7.17,3.69,17.1,17.1,0,0,0-2.29,9.16q0,5.9,2.32,9.43a7.86,7.86,0,0,0,7.05,3.54A8.22,8.22,0,0,0,148.1,169.53Z" transform="translate(-75.18 -26.43)"/><path class="cls-1" d="M207.16,175.88q-5.39,6.65-16.37,6.65t-16.37-6.65a26.42,26.42,0,0,1,0-32q5.39-6.75,16.37-6.75t16.37,6.75a26.42,26.42,0,0,1,0,32Zm-8.91-6.15q2.62-3.47,2.62-9.87T198.25,150a9.89,9.89,0,0,0-15,0q-2.64,3.45-2.64,9.85t2.64,9.87a9.86,9.86,0,0,0,15,0Z" transform="translate(-75.18 -26.43)"/><path class="cls-1" d="M254.85,141q4.18,3.46,4.18,11.46v28.67H247.63v-25.9a11.9,11.9,0,0,0-.89-5.16q-1.63-3.28-6.2-3.28-5.62,0-7.72,4.8a16.61,16.61,0,0,0-1.09,6.48v23H220.6v-42.5h10.78v6.21a18.87,18.87,0,0,1,4-4.73,14,14,0,0,1,8.67-2.58A16.32,16.32,0,0,1,254.85,141Z" transform="translate(-75.18 -26.43)"/><path class="cls-1" d="M269.54,141.56a8.74,8.74,0,0,0,5.59-4.1,6.9,6.9,0,0,0,.7-3.48h-6.48V123.71h11.48V132q0,5.9-3,9.3a14.12,14.12,0,0,1-8.33,4.41Z" transform="translate(-75.18 -26.43)"/><path class="cls-1" d="M287.24,146.83V138.9h5.94V127h11V138.9h6.91v7.93h-6.91v22.5q0,2.62.66,3.26t4.06.64l1.07,0,1.11-.06v8.32l-5.27.2q-7.89.27-10.78-2.73-1.87-1.91-1.87-5.9V146.83Z" transform="translate(-75.18 -26.43)"/><path class="cls-1" d="M360.56,138.51h11.29l6.48,30.66L385,138.51h11.6l-12.34,42.58H372.78l-6.68-31-6.76,31H347.78l-12-42.58h12l6.64,30.55Z" transform="translate(-75.18 -26.43)"/><path class="cls-1" d="M419.57,155.19a17.6,17.6,0,0,0,4.45-1,3.35,3.35,0,0,0,2.4-3.16,3.74,3.74,0,0,0-1.84-3.61,11.64,11.64,0,0,0-5.4-1q-4,0-5.66,2a8.05,8.05,0,0,0-1.58,3.91H401.18a16.29,16.29,0,0,1,3.14-9.18q4.43-5.62,15.22-5.62A27.15,27.15,0,0,1,432,140.27q5.45,2.77,5.45,10.47v19.53q0,2,.08,4.92a6.18,6.18,0,0,0,.66,3,4,4,0,0,0,1.64,1.29v1.64H427.75a12.34,12.34,0,0,1-.7-2.42q-.2-1.13-.31-2.58a23,23,0,0,1-5.34,4.26,16.15,16.15,0,0,1-8.17,2.07,14.1,14.1,0,0,1-9.61-3.3q-3.79-3.3-3.79-9.36,0-7.85,6.1-11.37,3.35-1.91,9.84-2.73Zm6.81,5.2a12.3,12.3,0,0,1-2.16,1.07,18.27,18.27,0,0,1-3,.76l-2.53.47a16.68,16.68,0,0,0-5.12,1.52,5.08,5.08,0,0,0-2.63,4.73,4.94,4.94,0,0,0,1.61,4.12,6.1,6.1,0,0,0,3.91,1.27,11.64,11.64,0,0,0,6.72-2.11q3.07-2.11,3.19-7.7Z" transform="translate(-75.18 -26.43)"/><path class="cls-1" d="M481.53,141q4.18,3.46,4.18,11.46v28.67H474.31v-25.9a11.9,11.9,0,0,0-.89-5.16q-1.63-3.28-6.2-3.28-5.62,0-7.72,4.8a16.61,16.61,0,0,0-1.09,6.48v23H447.28v-42.5h10.78v6.21a18.87,18.87,0,0,1,4-4.73,14,14,0,0,1,8.67-2.58A16.32,16.32,0,0,1,481.53,141Z" transform="translate(-75.18 -26.43)"/><path class="cls-1" d="M491.69,146.83V138.9h5.94V127h11V138.9h6.91v7.93h-6.91v22.5q0,2.62.66,3.26t4.06.64l1.07,0,1.11-.06v8.32l-5.27.2q-7.89.27-10.78-2.73-1.87-1.91-1.88-5.9V146.83Z" transform="translate(-75.18 -26.43)"/><path class="cls-1" d="M546.61,189.25l1.41.08a17.61,17.61,0,0,0,3.13-.12,5.62,5.62,0,0,0,2.5-.9,6,6,0,0,0,1.82-2.77,6.72,6.72,0,0,0,.72-2.58l-15.65-44.45h12.38l9.3,31.41L571,138.51h11.84l-14.6,41.88q-4.23,12.11-6.69,15t-9.85,2.91l-2.39,0q-.9,0-2.7-.14Z" transform="translate(-75.18 -26.43)"/><path class="cls-1" d="M624.93,175.88q-5.39,6.65-16.37,6.65t-16.37-6.65a26.42,26.42,0,0,1,0-32q5.39-6.75,16.37-6.75t16.37,6.75a26.42,26.42,0,0,1,0,32ZM616,169.73q2.62-3.47,2.62-9.87T616,150a9.89,9.89,0,0,0-15,0q-2.64,3.45-2.64,9.85t2.64,9.87a9.86,9.86,0,0,0,15,0Z" transform="translate(-75.18 -26.43)"/><path class="cls-1" d="M649.39,138.51v25.66a13.49,13.49,0,0,0,.86,5.47q1.52,3.24,5.95,3.24,5.67,0,7.77-4.61a16.78,16.78,0,0,0,1.09-6.6V138.51h11.29v42.58H665.52v-6q-.16.2-.78,1.17a7.8,7.8,0,0,1-1.48,1.72,15.45,15.45,0,0,1-5,3.2,17.16,17.16,0,0,1-5.71.86q-9.43,0-12.7-6.8Q638,171.48,638,164.18V138.51Z" transform="translate(-75.18 -26.43)"/><path class="cls-1" d="M710.81,137.52l1,.06V149q-1.05-.12-1.87-.16l-1.33,0q-6.72,0-9,4.38-1.29,2.46-1.29,7.58v20.35H687V138.51h10.63v7.42a23.55,23.55,0,0,1,4.49-5.82,12.23,12.23,0,0,1,8.13-2.62Z" transform="translate(-75.18 -26.43)"/><path class="cls-1" d="M766,153.79a9.87,9.87,0,0,0-1.61-4.3q-1.88-2.58-5.83-2.58-5.64,0-7.71,5.59a23.2,23.2,0,0,0-1.1,7.87,21.33,21.33,0,0,0,1.1,7.52q2,5.31,7.52,5.31,3.92,0,5.56-2.11a10.48,10.48,0,0,0,2-5.47h11.37a18.62,18.62,0,0,1-3.68,9.61q-5.24,7.31-15.52,7.3t-15.13-6.09q-4.85-6.09-4.85-15.8,0-11,5.36-17t14.78-6.09q8,0,13.12,3.59t6,12.7Z" transform="translate(-75.18 -26.43)"/><path class="cls-1" d="M820.52,175.88q-5.39,6.65-16.37,6.65t-16.37-6.65a26.42,26.42,0,0,1,0-32q5.39-6.75,16.37-6.75t16.37,6.75a26.42,26.42,0,0,1,0,32Zm-8.91-6.15q2.62-3.47,2.62-9.87T811.61,150a9.89,9.89,0,0,0-15,0q-2.64,3.45-2.64,9.85t2.64,9.87a9.86,9.86,0,0,0,15,0Z" transform="translate(-75.18 -26.43)"/><path class="cls-1" d="M868.21,141q4.18,3.46,4.18,11.46v28.67H861v-25.9a11.89,11.89,0,0,0-.89-5.16q-1.63-3.28-6.2-3.28-5.62,0-7.72,4.8a16.62,16.62,0,0,0-1.09,6.48v23H834v-42.5h10.78v6.21a18.87,18.87,0,0,1,4-4.73,14,14,0,0,1,8.67-2.58A16.32,16.32,0,0,1,868.21,141Z" transform="translate(-75.18 -26.43)"/><path class="cls-1" d="M909,138.51h12l-15.37,42.58H893.82l-15.27-42.58H891l8.87,31.41Z" transform="translate(-75.18 -26.43)"/><path class="cls-1" d="M955,139.38a17.33,17.33,0,0,1,7.36,6.3,20.94,20.94,0,0,1,3.39,8.8,54.42,54.42,0,0,1,.37,8.45h-31q.26,6.41,4.45,9a11.31,11.31,0,0,0,6.14,1.6,8.65,8.65,0,0,0,8.47-4.88h11.37q-.45,3.79-4.13,7.7-5.72,6.21-16,6.21a23.21,23.21,0,0,1-15-5.24q-6.5-5.24-6.5-17,0-11.06,5.87-17t15.23-5.9A24.24,24.24,0,0,1,955,139.38ZM938.33,149a11.57,11.57,0,0,0-3,6.59h19.18a9.29,9.29,0,0,0-3-6.73,9.76,9.76,0,0,0-6.6-2.3A8.83,8.83,0,0,0,938.33,149Z" transform="translate(-75.18 -26.43)"/><path class="cls-1" d="M995.38,137.52l1,.06V149q-1.05-.12-1.87-.16l-1.33,0q-6.72,0-9,4.38-1.29,2.46-1.29,7.58v20.35H971.61V138.51h10.63v7.42a23.55,23.55,0,0,1,4.49-5.82,12.23,12.23,0,0,1,8.13-2.62Z" transform="translate(-75.18 -26.43)"/><path class="cls-1" d="M1011.5,167.5a7.41,7.41,0,0,0,1.53,4.22q2.08,2.23,7.69,2.23a11.77,11.77,0,0,0,5.24-1,3.27,3.27,0,0,0,.38-5.78q-1.57-1-11.65-3.36-7.26-1.8-10.23-4.49t-3-7.66a13.27,13.27,0,0,1,4.64-10.14q4.64-4.24,13.06-4.24,8,0,13,3.18t5.77,11h-11.13a6.59,6.59,0,0,0-1.21-3.4q-1.84-2.26-6.27-2.27-3.64,0-5.19,1.13a3.26,3.26,0,0,0-1.55,2.66,2.9,2.9,0,0,0,1.65,2.77q1.65.9,11.62,3.09,6.65,1.56,10,4.73a10.73,10.73,0,0,1,3.28,8,12.93,12.93,0,0,1-4.72,10.33q-4.72,4-14.58,4-10.06,0-14.85-4.24a13.77,13.77,0,0,1-4.79-10.8Z" transform="translate(-75.18 -26.43)"/><path class="cls-1" d="M1064.22,155.19a17.59,17.59,0,0,0,4.45-1,3.35,3.35,0,0,0,2.4-3.16,3.74,3.74,0,0,0-1.84-3.61,11.63,11.63,0,0,0-5.4-1q-4,0-5.66,2a8.06,8.06,0,0,0-1.58,3.91h-10.74a16.29,16.29,0,0,1,3.14-9.18q4.43-5.62,15.22-5.62a27.15,27.15,0,0,1,12.48,2.77q5.45,2.77,5.45,10.47v19.53q0,2,.08,4.92a6.18,6.18,0,0,0,.66,3,4,4,0,0,0,1.64,1.29v1.64h-12.11a12.34,12.34,0,0,1-.7-2.42q-.2-1.13-.31-2.58a23,23,0,0,1-5.34,4.26,16.15,16.15,0,0,1-8.17,2.07,14.1,14.1,0,0,1-9.61-3.3q-3.79-3.3-3.79-9.36,0-7.85,6.1-11.37,3.34-1.91,9.84-2.73Zm6.81,5.2a12.3,12.3,0,0,1-2.16,1.07,18.22,18.22,0,0,1-3,.76l-2.53.47a16.69,16.69,0,0,0-5.12,1.52,5.09,5.09,0,0,0-2.63,4.73,4.94,4.94,0,0,0,1.61,4.12,6.1,6.1,0,0,0,3.91,1.27,11.64,11.64,0,0,0,6.72-2.11q3.07-2.11,3.19-7.7Z" transform="translate(-75.18 -26.43)"/><path class="cls-1" d="M1087.47,146.83V138.9h5.94V127h11V138.9h6.91v7.93h-6.91v22.5q0,2.62.66,3.26t4.06.64l1.07,0,1.11-.06v8.32l-5.27.2q-7.89.27-10.78-2.73-1.87-1.91-1.87-5.9V146.83Z" transform="translate(-75.18 -26.43)"/><path class="cls-1" d="M1129.93,133.43h-11.29V123.16h11.29Zm-11.29,5.08h11.29v42.58h-11.29Z" transform="translate(-75.18 -26.43)"/><path class="cls-1" d="M1176.22,175.88q-5.39,6.65-16.37,6.65t-16.37-6.65a26.42,26.42,0,0,1,0-32q5.39-6.75,16.37-6.75t16.37,6.75a26.42,26.42,0,0,1,0,32Zm-8.91-6.15q2.62-3.47,2.62-9.87t-2.62-9.85a9.89,9.89,0,0,0-15,0q-2.64,3.45-2.64,9.85t2.64,9.87a9.86,9.86,0,0,0,15,0Z" transform="translate(-75.18 -26.43)"/><path class="cls-1" d="M1223.92,141q4.18,3.46,4.18,11.46v28.67h-11.41v-25.9a11.89,11.89,0,0,0-.89-5.16q-1.63-3.28-6.2-3.28-5.62,0-7.72,4.8a16.62,16.62,0,0,0-1.09,6.48v23h-11.13v-42.5h10.78v6.21a18.87,18.87,0,0,1,4-4.73,14,14,0,0,1,8.67-2.58A16.32,16.32,0,0,1,1223.92,141Z" transform="translate(-75.18 -26.43)"/></svg>